<svg xmlns="http://www.w3.org/2000/svg" width="99.02" height="117.488" viewBox="0 0 99.02 117.488">
  <g id="Group_26" data-name="Group 26" transform="translate(-50.526)">
    <g id="Group_23" data-name="Group 23" transform="translate(50.526)">
      <path id="Path_11" data-name="Path 11" d="M146.315,3.018a5.906,5.906,0,0,0-5.925.814l-8.535,6.825a.659.659,0,0,1-.813,0l-11.613-9.38a5.979,5.979,0,0,0-7.38,0l-11.6,9.371a.665.665,0,0,1-.82,0l-11.6-9.371a5.979,5.979,0,0,0-7.38,0l-11.615,9.38a.665.665,0,0,1-.817,0L59.667,3.832a5.912,5.912,0,0,0-7.753.41,4.693,4.693,0,0,0-1.388,3.334V109.912a5.245,5.245,0,0,0,5.463,5,5.853,5.853,0,0,0,3.693-1.256l8.535-6.825a.659.659,0,0,1,.813,0l11.613,9.38a5.979,5.979,0,0,0,7.38,0l11.6-9.371a.665.665,0,0,1,.82,0l11.6,9.371a5.981,5.981,0,0,0,7.38,0l11.615-9.38a.665.665,0,0,1,.817,0l8.543,6.825a5.912,5.912,0,0,0,7.753-.413,4.693,4.693,0,0,0,1.386-3.331V7.576A4.915,4.915,0,0,0,146.315,3.018ZM70.886,39.86H101.51a2.233,2.233,0,1,1,0,4.443H70.886a2.233,2.233,0,1,1,0-4.443Zm58.3,37.769h-58.3a2.233,2.233,0,1,1,0-4.443h58.3a2.233,2.233,0,1,1,0,4.443Zm0-16.663h-58.3a2.233,2.233,0,1,1,0-4.443h58.3a2.233,2.233,0,1,1,0,4.443Z" transform="translate(-50.526 0)" fill="#fecccb"/>
    </g>
  </g>
</svg>
