<svg xmlns="http://www.w3.org/2000/svg" width="506.496" height="117.488" viewBox="0 0 506.496 117.488">
  <g id="Group_25" data-name="Group 25" transform="translate(-374 -788)">
    <g id="invoice_1_" data-name="invoice (1)" transform="translate(323.474 788)">
      <g id="Group_23" data-name="Group 23" transform="translate(50.526)">
        <path id="Path_11" data-name="Path 11" d="M146.315,3.018a5.906,5.906,0,0,0-5.925.814l-8.535,6.825a.659.659,0,0,1-.813,0l-11.613-9.38a5.979,5.979,0,0,0-7.38,0l-11.6,9.371a.665.665,0,0,1-.82,0l-11.6-9.371a5.979,5.979,0,0,0-7.38,0l-11.615,9.38a.665.665,0,0,1-.817,0L59.667,3.832a5.912,5.912,0,0,0-7.753.41,4.693,4.693,0,0,0-1.388,3.334V109.912a5.245,5.245,0,0,0,5.463,5,5.853,5.853,0,0,0,3.693-1.256l8.535-6.825a.659.659,0,0,1,.813,0l11.613,9.38a5.979,5.979,0,0,0,7.38,0l11.6-9.371a.665.665,0,0,1,.82,0l11.6,9.371a5.981,5.981,0,0,0,7.38,0l11.615-9.38a.665.665,0,0,1,.817,0l8.543,6.825a5.912,5.912,0,0,0,7.753-.413,4.693,4.693,0,0,0,1.386-3.331V7.576A4.915,4.915,0,0,0,146.315,3.018ZM70.886,39.86H101.51a2.233,2.233,0,1,1,0,4.443H70.886a2.233,2.233,0,1,1,0-4.443Zm58.3,37.769h-58.3a2.233,2.233,0,1,1,0-4.443h58.3a2.233,2.233,0,1,1,0,4.443Zm0-16.663h-58.3a2.233,2.233,0,1,1,0-4.443h58.3a2.233,2.233,0,1,1,0,4.443Z" transform="translate(-50.526 0)" fill="#fecccb"/>
      </g>
    </g>
    <g id="Group_24" data-name="Group 24" transform="translate(377.919 535)">
      <g id="Group_8" data-name="Group 8" transform="translate(120.242 272.551)">
        <g id="Group_7" data-name="Group 7">
          <path id="Path_4" data-name="Path 4" d="M127.742,272.551a7.444,7.444,0,0,0-7.5,7.388v63.169a7.5,7.5,0,0,0,15,0V279.939A7.443,7.443,0,0,0,127.742,272.551Z" transform="translate(-120.242 -272.551)"/>
        </g>
      </g>
      <g id="Group_10" data-name="Group 10" transform="translate(325.274 272.551)">
        <g id="Group_9" data-name="Group 9">
          <path id="Path_5" data-name="Path 5" d="M325.674,272.551a7.444,7.444,0,0,0-7.5,7.388v63.169a7.5,7.5,0,0,0,15,0V279.939A7.445,7.445,0,0,0,325.674,272.551Z" transform="translate(-318.174 -272.551)"/>
        </g>
      </g>
      <g id="Group_12" data-name="Group 12" transform="translate(147.298 272.549)">
        <g id="Group_11" data-name="Group 11">
          <path id="Path_6" data-name="Path 6" d="M186.862,272.551a7.444,7.444,0,0,0-7.5,7.388v31.873l-17.856-35.178a7.534,7.534,0,0,0-8.431-3.886,7.413,7.413,0,0,0-5.777,7.191v63.169a7.5,7.5,0,0,0,15,0V311.234l17.856,35.178a7.515,7.515,0,0,0,6.706,4.084,7.6,7.6,0,0,0,1.725-.2,7.413,7.413,0,0,0,5.777-7.191V279.939A7.445,7.445,0,0,0,186.862,272.551Z" transform="translate(-147.298 -272.549)"/>
        </g>
      </g>
      <g id="Group_14" data-name="Group 14" transform="translate(208.25 272.549)">
        <g id="Group_13" data-name="Group 13">
          <path id="Path_7" data-name="Path 7" d="M246.3,272.771a7.517,7.517,0,0,0-9.1,5.375l-8.757,34.5-8.756-34.5a7.511,7.511,0,0,0-9.1-5.375,7.381,7.381,0,0,0-5.457,8.96L221.169,344.9a7.528,7.528,0,0,0,14.552,0l16.033-63.169A7.383,7.383,0,0,0,246.3,272.771Z" transform="translate(-204.911 -272.549)"/>
        </g>
      </g>
      <g id="Group_16" data-name="Group 16" transform="translate(265.016 272.551)">
        <g id="Group_15" data-name="Group 15">
          <path id="Path_8" data-name="Path 8" d="M283.055,272.551a23.384,23.384,0,0,0-23.532,23.18v31.584a23.535,23.535,0,0,0,47.065,0V295.731A23.385,23.385,0,0,0,283.055,272.551Zm8.534,54.764h0a8.533,8.533,0,0,1-17.065,0V295.732a8.533,8.533,0,0,1,17.065,0Z" transform="translate(-259.523 -272.551)"/>
        </g>
      </g>
      <g id="Group_18" data-name="Group 18" transform="translate(353.488 272.551)">
        <g id="Group_17" data-name="Group 17">
          <path id="Path_9" data-name="Path 9" d="M385.869,328.816a7.566,7.566,0,0,0-10.248,2.7,8.594,8.594,0,0,1-7.395,4.207,8.478,8.478,0,0,1-8.532-8.4V295.731a8.479,8.479,0,0,1,8.532-8.4,8.6,8.6,0,0,1,7.394,4.2,7.56,7.56,0,0,0,10.249,2.691,7.327,7.327,0,0,0,2.732-10.095,23.684,23.684,0,0,0-20.375-11.576,23.384,23.384,0,0,0-23.532,23.18v31.584a23.384,23.384,0,0,0,23.532,23.18,23.682,23.682,0,0,0,20.379-11.584A7.326,7.326,0,0,0,385.869,328.816Z" transform="translate(-344.694 -272.551)"/>
        </g>
      </g>
      <g id="Group_20" data-name="Group 20" transform="translate(413.529 272.551)">
        <g id="Group_19" data-name="Group 19">
          <path id="Path_10" data-name="Path 10" d="M432.356,318.911a7.389,7.389,0,1,0,0-14.775H415.808V287.327h16.548a7.389,7.389,0,1,0,0-14.775H408.308a7.444,7.444,0,0,0-7.5,7.388v63.169a7.444,7.444,0,0,0,7.5,7.388h24.048a7.389,7.389,0,1,0,0-14.775H415.808V318.911Z" transform="translate(-400.808 -272.551)"/>
        </g>
      </g>
      <g id="Group_21" data-name="Group 21" transform="translate(463.529 272.551)">
        <g id="Group_19-2" data-name="Group 19">
          <path id="Path_10-2" data-name="Path 10" d="M432.356,318.911a7.389,7.389,0,1,0,0-14.775H415.808V287.327h16.548a7.389,7.389,0,1,0,0-14.775H408.308a7.444,7.444,0,0,0-7.5,7.388v63.169a7.444,7.444,0,0,0,7.5,7.388h24.048a7.389,7.389,0,1,0,0-14.775H415.808V318.911Z" transform="translate(-400.808 -272.551)"/>
        </g>
      </g>
    </g>
  </g>
</svg>
